<svg xmlns="http://www.w3.org/2000/svg" viewBox="0 0 456 411">
  <defs>
    <style>
      .cls-1 {
        fill: #fc0606;
      }

      .cls-2 {
        fill: #f9f8f7;
      }

      .cls-3 {
        fill: #f9f9f9;
      }
    </style>
  </defs>
  <title>This Bolt</title>
  <g id="Layer_1" data-name="Layer 1">
    <path class="cls-1" d="M430.119,564.791A215.225,215.225,0,0,1,340,389.5C340,270.483,436.483,174,555.5,174a214.649,214.649,0,0,1,139.768,51.467" transform="translate(-340 -174)"/>
    <path d="M455.119,544.791A214.52,214.52,0,0,0,580.5,585C699.517,585,796,488.517,796,369.5a215.023,215.023,0,0,0-75.732-164.033" transform="translate(-340 -174)"/>
  </g>
  <g id="Layer_2" data-name="Layer 2">
    <g>
      <path class="cls-2" d="M487.646,298.848a27.466,27.466,0,0,1,4.921,16.489q-.021,9.888-5.033,15.884a25.8,25.8,0,0,1-8.246,6.135A24.054,24.054,0,0,1,491.74,346.9q4.192,6.527,4.173,15.828a31.571,31.571,0,0,1-4.842,17.2A29.729,29.729,0,0,1,471.2,393.81a74.752,74.752,0,0,1-15.258,1.434l-48.644-.1.22-107.959,52.172.106Q479.435,287.625,487.646,298.848Zm-58.719,48.806-.059,28.784,26.21.054q7.021.015,10.937-1.882,7.1-3.5,7.123-13.462.018-8.421-6.854-11.587-3.836-1.765-10.785-1.853Zm.085-41.675-.048,23.8,26.239.054q7.031.015,11.422-2.649t4.4-9.477q.015-7.542-5.779-9.973a40.651,40.651,0,0,0-12.754-1.711Z" transform="translate(-340 -174)"/>
      <path class="cls-2" d="M580.168,385.73q-10.132,12.456-30.714,12.414T518.791,385.6q-10.082-12.5-10.046-30.061.035-17.271,10.168-29.91t30.714-12.6q20.58.042,30.663,12.723t10.046,29.952Q590.3,373.275,580.168,385.73Zm-16.675-11.569q4.919-6.5,4.945-18.494t-4.87-18.477q-4.895-6.482-14.049-6.5t-14.112,6.444q-4.957,6.461-4.981,18.456t4.906,18.515q4.93,6.519,14.085,6.536T563.493,374.161Z" transform="translate(-340 -174)"/>
      <path class="cls-2" d="M626.511,395.591l-20.874-.042.221-107.959,20.873.042Z" transform="translate(-340 -174)"/>
      <path class="cls-2" d="M638.8,331.383l.03-14.868,11.133.022.045-22.266,20.654.042-.045,22.266,12.964.026-.03,14.868-12.964-.026-.086,42.188q-.01,4.907,1.232,6.119t7.614,1.224q.952,0,2.015-.032t2.088-.106l-.032,15.6-9.889.346q-14.795.482-20.2-5.168-3.508-3.595-3.493-11.066l.1-49.146Z" transform="translate(-340 -174)"/>
    </g>
    <g>
      <path class="cls-3" d="M445.333,413.987a23.787,23.787,0,0,1,12.272,9.123,32.022,32.022,0,0,1,5.139,11.618,55.743,55.743,0,0,1,1.377,11.913q.01,14.355-5.749,24.32-7.809,13.434-24.13,13.444l-31.031.022-.051-71.973,31.031-.022A37.929,37.929,0,0,1,445.333,413.987Zm-27.565,10.958.033,46.973,13.889-.01q10.662-.007,14.859-10.508a36.97,36.97,0,0,0,2.289-13.723q-.007-10.986-3.459-16.868t-13.722-5.874Z" transform="translate(-340 -174)"/>
      <path class="cls-3" d="M508.95,432.208a21.654,21.654,0,0,1,9.2,7.866,26.168,26.168,0,0,1,4.248,11,67.979,67.979,0,0,1,.467,10.563l-38.764.027q.329,8.008,5.573,11.227a14.134,14.134,0,0,0,7.674,2,10.809,10.809,0,0,0,10.587-6.111l14.208-.01q-.558,4.737-5.152,9.622-7.146,7.77-20.018,7.778a29.013,29.013,0,0,1-18.751-6.534q-8.127-6.545-8.137-21.3-.01-13.83,7.317-21.214t19.027-7.394A30.32,30.32,0,0,1,508.95,432.208Zm-20.81,12.036a14.464,14.464,0,0,0-3.7,8.241l23.975-.017q-.384-5.542-3.713-8.408a12.2,12.2,0,0,0-8.255-2.863Q491.086,441.2,488.14,444.244Z" transform="translate(-340 -174)"/>
      <path class="cls-3" d="M540.7,467.338q.444,3.712,1.917,5.272,2.6,2.78,9.618,2.776a14.714,14.714,0,0,0,6.549-1.226,4.089,4.089,0,0,0,.467-7.227q-1.958-1.219-14.562-4.189-9.073-2.238-12.786-5.606-3.713-3.316-3.718-9.567a16.585,16.585,0,0,1,5.79-12.675q5.795-5.3,16.315-5.31,9.981-.007,16.272,3.968t7.228,13.74l-13.916.01a8.235,8.235,0,0,0-1.521-4.247q-2.3-2.83-7.837-2.826-4.553,0-6.486,1.421a4.074,4.074,0,0,0-1.932,3.321,3.632,3.632,0,0,0,2.059,3.466q2.057,1.122,14.533,3.847,8.317,1.948,12.471,5.9a13.417,13.417,0,0,1,4.108,10.007,16.158,16.158,0,0,1-5.887,12.919q-5.892,5.008-18.221,5.018-12.575.01-18.572-5.284a17.219,17.219,0,0,1-6-13.5Z" transform="translate(-340 -174)"/>
      <path class="cls-3" d="M599.8,424.718l-14.111.01-.009-12.842,14.112-.01Zm-14.107,6.357,14.112-.01.037,53.223-14.111.01Z" transform="translate(-340 -174)"/>
      <path class="cls-3" d="M639.609,430.988a16.715,16.715,0,0,1,8.2,7.709l0-7.666,13.574-.01.035,50.488q.009,10.3-3.455,15.53-5.952,8.988-22.846,9-10.206.007-16.653-3.991a14.779,14.779,0,0,1-7.138-11.958l15.137-.011a6.273,6.273,0,0,0,1.907,3.514q2.247,1.9,7.569,1.9,7.521-.006,10.056-5.036,1.657-3.224,1.652-10.842l0-3.418a16.949,16.949,0,0,1-4.293,5.13q-4.148,3.177-10.789,3.182-10.254.007-16.387-7.19t-6.142-19.5q-.007-11.865,5.886-19.951t16.722-8.093A18.305,18.305,0,0,1,639.609,430.988Zm4.768,38.156q3.352-3.688,3.347-11.746-.006-7.567-3.193-11.521a10.392,10.392,0,0,0-8.536-3.949q-7.295,0-10.061,6.892a24.5,24.5,0,0,0-1.452,9.034,20.7,20.7,0,0,0,1.562,8.251,10.141,10.141,0,0,0,10.119,6.731A10.692,10.692,0,0,0,644.377,469.145Z" transform="translate(-340 -174)"/>
      <path class="cls-3" d="M717.285,434.034q5.229,4.317,5.236,14.327l.025,35.84-14.258.01-.023-32.373a14.874,14.874,0,0,0-1.119-6.444q-2.039-4.1-7.758-4.1-7.028,0-9.641,6.013a20.736,20.736,0,0,0-1.352,8.106l.02,28.809-13.916.01-.037-53.125,13.477-.01.006,7.764A23.59,23.59,0,0,1,693,432.952a17.525,17.525,0,0,1,10.841-3.23Q712.054,429.716,717.285,434.034Z" transform="translate(-340 -174)"/>
    </g>
  </g>
</svg>
